<svg viewBox="0 0 310.256 250.756" xmlns="http://www.w3.org/2000/svg" xmlns:xlink="http://www.w3.org/1999/xlink" width="310.255859" height="250.755981" fill="none" customFrame="#000000">
	<defs>
		<linearGradient id="paint_linear_0" x1="49.6441498" x2="319.944122" y1="125.294182" y2="125.294182" gradientUnits="userSpaceOnUse">
			<stop stop-color="rgb(58,67,228)" offset="0" stop-opacity="1" />
			<stop stop-color="rgb(25,17,64)" offset="1" stop-opacity="1" />
		</linearGradient>
	</defs>
	<g id="Группа 1">
		<path id="Вектор 1" d="M66.4742 108.549L168.049 6.97415C171.003 4.01968 174.683 1.89494 178.719 0.813512C182.755 -0.267914 187.004 -0.267916 191.039 0.813509C195.075 1.89494 198.755 4.01968 201.709 6.97415L303.284 108.549C306.239 111.503 308.363 115.183 309.445 119.219C310.526 123.255 310.526 127.504 309.445 131.539C308.363 135.575 306.239 139.255 303.284 142.209L201.709 243.784C198.755 246.739 195.075 248.863 191.039 249.945C187.004 251.026 182.755 251.026 178.719 249.945C174.683 248.863 171.003 246.739 168.049 243.784L66.4742 142.209C63.5197 139.255 61.3949 135.575 60.3135 131.539C59.2321 127.504 59.2321 123.255 60.3135 119.219C61.3949 115.183 63.5197 111.503 66.4742 108.549Z" fill="url(#paint_linear_0)" fill-rule="nonzero" />
		<path id="Вектор 2" d="M142.209 6.97425C132.91 -2.32475 117.848 -2.32475 108.549 6.97425L6.97425 108.549C-2.32475 117.848 -2.32475 132.91 6.97425 142.209L108.549 243.784C117.848 253.075 132.91 253.075 142.209 243.784L168.474 217.519C177.773 208.22 177.773 193.15 168.474 183.859L126.824 142.209C117.525 132.91 117.525 117.848 126.824 108.549L168.474 66.8992C177.773 57.6002 177.773 42.5382 168.474 33.2392L142.209 6.97425Z" fill="rgb(144,151,255)" fill-rule="evenodd" />
	</g>
</svg>
